<svg width="32" height="32" viewBox="0 0 512 501" fill="none" xmlns="http://www.w3.org/2000/svg">
<path fill-rule="evenodd" clip-rule="evenodd" d="M297 142C303 151 303 153 311 164C314 168 316 170 319 174C322 177 325 180 328 183L347 200C352 203 365 213 370 214C372 209 393 179 398 173C428 136 451 116 490 87C497 82 505 78 512 73C511 69 501 55 498 52C488 40 474 25 462 15C458 12 445 1 440 0C430 19 416 35 403 51C400 55 398 57 395 61C385 74 353 102 340 113C331 120 308 137 297 142Z" fill="url(#a)"/>
<path fill-rule="evenodd" clip-rule="evenodd" d="M0 441C1 447 20 469 25 474C47 496 50 500 59 501H77C80 501 83 496 84 493C87 490 88 487 91 484C95 478 99 472 104 467L134 434C137 432 139 430 142 427L158 412C170 403 190 385 203 378L175 356C165 347 143 322 136 311L107 348C104 352 102 353 99 357L74 382C49 407 30 421 0 441Z" fill="url(#a)"/>
<path fill-rule="evenodd" clip-rule="evenodd" d="M151 289C154 302 180 328 191 338C198 346 213 357 222 361L248 323C253 317 258 312 263 306C268 300 274 295 279 289C287 281 296 273 304 266C307 263 310 261 313 258L340 237C343 234 347 232 349 229C346 228 347 228 344 226L330 215C328 214 327 213 326 211C320 206 310 198 304 191C303 189 303 188 301 186C299 185 298 184 296 182L286 168C284 165 284 164 281 163C279 169 252 202 246 208C229 226 209 248 189 263C179 270 162 283 151 289Z" fill="url(#a)"/>
<path fill-rule="evenodd" clip-rule="evenodd" d="M141 263C151 256 167 226 172 213C197 158 187 86 151 39C149 36 144 29 142 27C133 33 115 68 112 77C89 133 95 194 128 245C130 247 131 249 132 251C135 254 140 259 141 263Z" fill="url(#a)"/>
<path fill-rule="evenodd" clip-rule="evenodd" d="M104 279L121 278C112 260 105 250 85.9999 238C69.9999 228 51.9999 221 27.9999 223C19.9999 224 16.9999 222 20.9999 230C22.9999 233 26.9999 238 28.9999 241L37.9999 251C39.9999 254 39.9999 254 42.9999 256C58.9999 268 76.9999 279 104 279Z" fill="url(#a)"/>
  <defs>
    <linearGradient id="a" x1="16" y1="1.333" x2="16" y2="30.667" gradientUnits="userSpaceOnUse">
      <stop stop-color="#FFBF00"/>
      <stop offset="1" stop-color="#F2A50C"/>
    </linearGradient>
  </defs>
</svg>
