<svg width="64" height="101" viewBox="0 0 64 101" fill="none" xmlns="http://www.w3.org/2000/svg">
<path fill-rule="evenodd" clip-rule="evenodd" d="M0 66.2581C0 73.2581 0 75.2581 3 82.2581C4 83.2581 5 85.2581 6 86.2581C12 95.2581 21 100.258 32 100.258C36 100.258 42 98.2581 45 97.2581C49 94.2581 50 94.2581 53 91.2581C53 91.2581 54 91.2581 54 90.2581L56 88.2581C57 87.2581 57 87.2581 58 86.2581C64 78.2581 65 65.2581 61 55.2581C60 54.2581 60 54.2581 60 54.2581C56 44.2581 44 36.2581 33 36.2581C28 36.2581 25 36.2581 21 38.2581C20 38.2581 19 39.2581 18 39.2581C18 33.2581 17 22.2581 19 18.2581C20 15.2581 21 13.2581 23 12.2581C26 9.25808 31 8.25808 35 9.25808C46 12.2581 45 23.2581 45 24.2581C47 29.2581 54 27.2581 54 22.2581C54 5.25808 36 -4.74192 22 2.25808C16 5.25808 12 9.25808 10 15.2581C8 20.2581 9 32.2581 9 38.2581C9 40.2581 9 42.2581 9 44.2581C9 47.2581 9 45.2581 6 48.2581C5 51.2581 3 53.2581 2 56.2581C1 59.2581 0 63.2581 0 66.2581ZM36 73.2581C36 73.2581 36 73.2581 36 74.2581C36 74.2581 36 74.2581 36 75.2581C35 77.2581 33 78.2581 31 78.2581C29 78.2581 26 76.2581 26 74.2581C26 73.2581 27 73.2581 27 72.2581V69.2581C26 68.2581 25 66.2581 25 64.2581C25 61.2581 28 58.2581 31 58.2581C35 58.2581 38 61.2581 38 64.2581C38 66.2581 37 68.2581 36 69.2581V73.2581Z" fill="url(#a)"/>
<defs>
    <linearGradient id="a" x1="16" y1="1.333" x2="16" y2="30.667" gradientUnits="userSpaceOnUse">
      <stop stop-color="#FFBF00"/>
      <stop offset="1" stop-color="#F2A50C"/>
    </linearGradient>
</defs>
</svg>
