<svg width="175" height="28" viewBox="0 0 175 28" fill="none" xmlns="http://www.w3.org/2000/svg">
<path d="M0.592 27V1.692H4.048L14.308 18.108H12.328L22.552 1.692H26.008V27H21.148V10.08L22.084 10.368L14.956 21.816H11.644L4.516 10.368L5.488 10.08V27H0.592ZM38.8459 27.36C37.0939 27.36 35.5099 26.964 34.0939 26.172C32.7019 25.356 31.5859 24.264 30.7459 22.896C29.9299 21.504 29.5219 19.956 29.5219 18.252C29.5219 16.548 29.9299 15.024 30.7459 13.68C31.5619 12.312 32.6779 11.232 34.0939 10.44C35.5099 9.624 37.0819 9.216 38.8099 9.216C40.5859 9.216 42.1699 9.624 43.5619 10.44C44.9779 11.232 46.0939 12.312 46.9099 13.68C47.7259 15.024 48.1339 16.548 48.1339 18.252C48.1339 19.956 47.7259 21.504 46.9099 22.896C46.0939 24.264 44.9779 25.356 43.5619 26.172C42.1699 26.964 40.5979 27.36 38.8459 27.36ZM38.8099 22.968C39.6979 22.968 40.4779 22.776 41.1499 22.392C41.8459 21.984 42.3739 21.432 42.7339 20.736C43.1179 20.016 43.3099 19.2 43.3099 18.288C43.3099 17.376 43.1179 16.572 42.7339 15.876C42.3499 15.18 41.8219 14.64 41.1499 14.256C40.4779 13.848 39.6979 13.644 38.8099 13.644C37.9459 13.644 37.1779 13.848 36.5059 14.256C35.8339 14.64 35.3059 15.18 34.9219 15.876C34.5379 16.572 34.3459 17.376 34.3459 18.288C34.3459 19.2 34.5379 20.016 34.9219 20.736C35.3059 21.432 35.8339 21.984 36.5059 22.392C37.1779 22.776 37.9459 22.968 38.8099 22.968ZM56.2947 27L48.6267 9.612H53.8107L59.3187 23.94H56.7627L62.3067 9.612H67.3107L59.6787 27H56.2947ZM77.2751 27.36C75.4511 27.36 73.8311 26.976 72.4151 26.208C70.9991 25.416 69.8711 24.336 69.0311 22.968C68.2151 21.6 67.8071 20.04 67.8071 18.288C67.8071 16.56 68.2031 15.024 68.9951 13.68C69.8111 12.312 70.9151 11.232 72.3071 10.44C73.6991 9.624 75.2471 9.216 76.9511 9.216C78.6311 9.216 80.1071 9.6 81.3791 10.368C82.6751 11.112 83.6831 12.144 84.4031 13.464C85.1471 14.76 85.5191 16.236 85.5191 17.892C85.5191 18.204 85.4951 18.528 85.4471 18.864C85.4231 19.176 85.3631 19.536 85.2671 19.944L70.6511 19.98V16.452L83.0711 16.416L81.1631 17.892C81.1151 16.86 80.9231 15.996 80.5871 15.3C80.2751 14.604 79.8071 14.076 79.1831 13.716C78.5831 13.332 77.8391 13.14 76.9511 13.14C76.0151 13.14 75.1991 13.356 74.5031 13.788C73.8071 14.196 73.2671 14.784 72.8831 15.552C72.5231 16.296 72.3431 17.184 72.3431 18.216C72.3431 19.272 72.5351 20.196 72.9191 20.988C73.3271 21.756 73.9031 22.356 74.6471 22.788C75.3911 23.196 76.2551 23.4 77.2391 23.4C78.1271 23.4 78.9311 23.256 79.6511 22.968C80.3711 22.656 80.9951 22.2 81.5231 21.6L84.2951 24.372C83.4551 25.356 82.4231 26.1 81.1991 26.604C79.9991 27.108 78.6911 27.36 77.2751 27.36ZM112.027 27L100.219 14.04C99.3309 13.056 98.6709 12.12 98.2389 11.232C97.8069 10.32 97.5909 9.324 97.5909 8.244C97.5909 6.972 97.9029 5.808 98.5269 4.752C99.1749 3.696 100.051 2.856 101.155 2.232C102.283 1.608 103.567 1.296 105.007 1.296C106.135 1.296 107.143 1.476 108.031 1.836C108.919 2.172 109.687 2.616 110.335 3.168C111.007 3.72 111.547 4.308 111.955 4.932L108.715 7.956C108.211 7.26 107.671 6.72 107.095 6.336C106.519 5.928 105.847 5.724 105.079 5.724C104.263 5.724 103.579 5.964 103.027 6.444C102.475 6.924 102.199 7.524 102.199 8.244C102.199 8.916 102.343 9.492 102.631 9.972C102.919 10.428 103.315 10.956 103.819 11.556L117.607 27H112.027ZM103.567 27.36C101.839 27.36 100.327 27.024 99.0309 26.352C97.7589 25.68 96.7629 24.768 96.0429 23.616C95.3469 22.44 94.9989 21.108 94.9989 19.62C94.9989 18.084 95.4069 16.704 96.2229 15.48C97.0629 14.256 98.2989 13.26 99.9309 12.492L102.055 15.516C101.239 15.9 100.615 16.416 100.183 17.064C99.7749 17.688 99.5709 18.468 99.5709 19.404C99.5709 20.124 99.7389 20.76 100.075 21.312C100.411 21.84 100.891 22.26 101.515 22.572C102.139 22.86 102.859 23.004 103.675 23.004C104.707 23.004 105.571 22.788 106.267 22.356C106.963 21.924 107.515 21.372 107.923 20.7L111.091 24.156C110.611 24.732 109.987 25.26 109.219 25.74C108.451 26.22 107.587 26.616 106.627 26.928C105.667 27.216 104.647 27.36 103.567 27.36ZM125.596 27V0.971998H130.312V27H125.596ZM134.49 27V9.612H139.242V27H134.49ZM136.866 6.804C136.098 6.804 135.462 6.552 134.958 6.048C134.454 5.52 134.202 4.872 134.202 4.104C134.202 3.36 134.454 2.724 134.958 2.196C135.462 1.668 136.098 1.404 136.866 1.404C137.658 1.404 138.294 1.668 138.774 2.196C139.278 2.724 139.53 3.36 139.53 4.104C139.53 4.872 139.278 5.52 138.774 6.048C138.294 6.552 137.658 6.804 136.866 6.804ZM145.724 27V7.74C145.724 6.348 146.024 5.124 146.624 4.068C147.224 2.988 148.076 2.136 149.18 1.512C150.284 0.887999 151.58 0.575999 153.068 0.575999C154.196 0.575999 155.168 0.767999 155.984 1.152C156.8 1.536 157.532 2.064 158.18 2.736L155.192 5.76C154.928 5.496 154.64 5.292 154.328 5.148C154.016 5.004 153.62 4.932 153.14 4.932C152.276 4.932 151.604 5.172 151.124 5.652C150.668 6.108 150.44 6.768 150.44 7.632V27H145.724ZM141.692 13.752V9.612H155.588V13.752H141.692ZM166.009 27.36C164.185 27.36 162.565 26.976 161.149 26.208C159.733 25.416 158.605 24.336 157.765 22.968C156.949 21.6 156.541 20.04 156.541 18.288C156.541 16.56 156.937 15.024 157.729 13.68C158.545 12.312 159.649 11.232 161.041 10.44C162.433 9.624 163.981 9.216 165.685 9.216C167.365 9.216 168.841 9.6 170.113 10.368C171.409 11.112 172.417 12.144 173.137 13.464C173.881 14.76 174.253 16.236 174.253 17.892C174.253 18.204 174.229 18.528 174.181 18.864C174.157 19.176 174.097 19.536 174.001 19.944L159.385 19.98V16.452L171.805 16.416L169.897 17.892C169.849 16.86 169.657 15.996 169.321 15.3C169.009 14.604 168.541 14.076 167.917 13.716C167.317 13.332 166.573 13.14 165.685 13.14C164.749 13.14 163.933 13.356 163.237 13.788C162.541 14.196 162.001 14.784 161.617 15.552C161.257 16.296 161.077 17.184 161.077 18.216C161.077 19.272 161.269 20.196 161.653 20.988C162.061 21.756 162.637 22.356 163.381 22.788C164.125 23.196 164.989 23.4 165.973 23.4C166.861 23.4 167.665 23.256 168.385 22.968C169.105 22.656 169.729 22.2 170.257 21.6L173.029 24.372C172.189 25.356 171.157 26.1 169.933 26.604C168.733 27.108 167.425 27.36 166.009 27.36Z" fill="white"/>
</svg>
